<svg width="167" height="40" viewBox="0 0 167 40" fill="none" xmlns="http://www.w3.org/2000/svg">
<path d="M145.952 18.0119L145.898 22.1221L162.188 22.3315L162.241 18.2213L145.952 18.0119Z" fill="#002DB4"/>
<path d="M151.479 10.1985L144.859 11.8728L145.877 15.8566L152.496 14.1823L151.479 10.1985Z" fill="#002DB4"/>
<path d="M145.71 24.5742L144.59 28.5305L160.27 32.9289L161.39 28.9726L145.71 24.5742Z" fill="#002DB4"/>
<path d="M13.4305 27.3273C12.2758 27.3273 11.2523 27.1613 10.3599 26.8293C9.46755 26.4974 8.7146 26.0218 8.10107 25.4025C7.48754 24.7834 7.02768 24.0384 6.72149 23.1675C6.41531 22.2966 6.26205 21.2963 6.26172 20.1667C6.26172 19.0546 6.41498 18.0315 6.72149 17.0974C7.02801 16.1632 7.47895 15.351 8.0743 14.6607C8.66695 13.9712 9.4118 13.4276 10.2506 13.0723C11.1081 12.7034 12.0777 12.519 13.1593 12.519C14.2053 12.519 15.1385 12.685 15.959 13.017C16.7624 13.3364 17.4668 13.8612 18.0012 14.5382C18.5422 15.2199 18.9483 16.0591 19.2195 17.0558C19.4906 18.0525 19.599 19.2143 19.5447 20.5414L8.48005 20.5951V18.6308L17.5427 18.5767L16.325 19.654C16.4334 18.6308 16.3568 17.7916 16.0954 17.1367C15.8339 16.4817 15.4461 15.997 14.9322 15.6825C14.4174 15.3689 13.8357 15.2122 13.1871 15.2122C12.4653 15.2122 11.8296 15.4051 11.28 15.791C10.7303 16.1769 10.302 16.7329 9.99495 17.4591C9.6881 18.1861 9.53476 19.07 9.53493 20.1109C9.53493 21.6729 9.87755 22.8398 10.5628 23.6114C11.248 24.383 12.2039 24.7689 13.4305 24.7691C13.9717 24.7691 14.427 24.7018 14.7966 24.5672C15.1661 24.4326 15.4772 24.2485 15.7299 24.015C15.9755 23.7908 16.1812 23.5269 16.3385 23.2345C16.4867 22.9591 16.6089 22.6706 16.7035 22.3728L19.6803 23.0201C19.5172 23.6842 19.278 24.2766 18.9628 24.7975C18.6398 25.3262 18.2172 25.7878 17.7183 26.1571C17.2042 26.543 16.5955 26.8348 15.8922 27.0325C15.189 27.2302 14.3684 27.3284 13.4305 27.3273Z" fill="#002DB4"/>
<path d="M21.543 21.323V18.2537H29.1443V21.323H21.543Z" fill="#002DB4"/>
<path d="M31.9333 31.4201L31.9062 20.0038L31.9333 12.8691H34.8005L34.7735 16.6654L35.2067 16.7194C35.4048 15.8221 35.7023 15.0638 36.099 14.4446C36.4805 13.8394 37.0176 13.3467 37.6547 13.0175C38.2947 12.6855 39.0386 12.5195 39.8863 12.5195C41.1669 12.5195 42.2489 12.8337 43.1325 13.4621C44.016 14.0905 44.6831 14.9656 45.1337 16.0873C45.5839 17.2091 45.8091 18.5058 45.8091 19.9774C45.8091 21.378 45.6017 22.63 45.187 23.7336C44.7722 24.8372 44.1411 25.7123 43.2936 26.3588C42.4457 27.0046 41.3907 27.3276 40.1284 27.3278C39.1904 27.3278 38.4057 27.1438 37.7745 26.7758C37.1459 26.4104 36.6165 25.8976 36.2326 25.282C35.8359 24.6539 35.5113 23.927 35.259 23.1012L34.772 23.0744C34.899 23.5754 34.9992 24.0827 35.0721 24.5943C35.1442 25.1064 35.2074 25.609 35.2618 26.1023C35.3145 26.5716 35.3416 27.0433 35.3431 27.5155V31.4201H31.9333ZM38.9937 24.5542C39.697 24.5542 40.2875 24.3569 40.7653 23.9622C41.2431 23.5675 41.6175 23.029 41.8885 22.3466C42.1588 21.6646 42.294 20.8658 42.294 19.9503C42.294 19.0168 42.1588 18.2091 41.8885 17.5271C41.6181 16.8451 41.2304 16.3156 40.7253 15.9386C40.2201 15.5617 39.625 15.3731 38.9397 15.373C38.3444 15.373 37.8168 15.5076 37.357 15.7768C36.9024 16.0413 36.5139 16.4049 36.2208 16.8404C35.9263 17.2738 35.7025 17.751 35.5579 18.2541C35.4183 18.7263 35.3456 19.2156 35.3418 19.7078V20.1915C35.3517 20.9834 35.5462 21.7622 35.9099 22.4666C36.1041 22.8474 36.3548 23.1969 36.6536 23.5033C36.952 23.8094 37.2994 24.0641 37.6815 24.2572C38.0692 24.4554 38.5066 24.5543 38.9937 24.554V24.5542Z" fill="#002DB4"/>
<path d="M55.1972 27.3273C53.8085 27.3273 52.5867 27.04 51.5318 26.4656C50.4768 25.8911 49.6471 25.052 49.0428 23.9483C48.4386 22.8443 48.1366 21.4846 48.1367 19.8691C48.1367 18.2359 48.4433 16.8717 49.0565 15.7766C49.6697 14.6814 50.5082 13.8648 51.572 13.3267C52.6358 12.7883 53.8442 12.519 55.1972 12.519C56.5675 12.519 57.7849 12.7973 58.8494 13.3538C59.9139 13.9104 60.7525 14.7403 61.3654 15.8435C61.9783 16.9476 62.2848 18.3162 62.2849 19.9493C62.2849 21.6008 61.9738 22.9695 61.3516 24.0553C60.7294 25.1412 59.8819 25.9579 58.8091 26.5054C57.7356 27.0532 56.5317 27.3271 55.1972 27.3273ZM55.3325 24.7153C56.09 24.7153 56.7256 24.5405 57.2394 24.1908C57.7532 23.841 58.1546 23.316 58.4434 22.6155C58.7317 21.9156 58.8761 21.0809 58.8764 20.1114C58.8764 19.0884 58.7276 18.2134 58.4301 17.4862C58.1326 16.7591 57.7042 16.1983 57.1449 15.804C56.586 15.4094 55.9008 15.2122 55.0891 15.2122C54.3675 15.2122 53.7408 15.3872 53.209 15.7372C52.6772 16.0873 52.2669 16.6033 51.9783 17.2853C51.6896 17.9675 51.5453 18.8111 51.5455 19.8161C51.5455 21.3959 51.8836 22.6076 52.5599 23.4511C53.2361 24.2946 54.1603 24.716 55.3325 24.7153Z" fill="#002DB4"/>
<path d="M65.3164 26.9503V19.8962L65.3432 12.8688H68.2379L68.1566 17.7155H68.6434C68.7873 16.5488 69.0353 15.5885 69.3873 14.8344C69.7394 14.0804 70.2263 13.5105 70.848 13.1248C71.47 12.7388 72.223 12.5459 73.1071 12.5459C73.2872 12.5459 73.481 12.5549 73.6887 12.5728C73.9224 12.5958 74.1534 12.6408 74.3786 12.7072L74.2433 16.3153C73.9616 16.1919 73.6664 16.1016 73.3637 16.0462C73.0915 15.9947 72.8153 15.9677 72.5382 15.9653C71.8346 15.9653 71.2259 16.1448 70.7121 16.5038C70.1983 16.8628 69.7791 17.3743 69.4544 18.0384C69.1294 18.7023 68.895 19.483 68.7512 20.3805V26.9503H65.3164Z" fill="#002DB4"/>
<path d="M81.8722 27.2736C80.3933 27.2736 79.2931 26.8742 78.5715 26.0755C77.8499 25.2768 77.4892 24.0248 77.4896 22.3196V15.5884H75.4336L75.4879 12.8968H76.8947C77.3997 12.8789 77.7784 12.7936 78.0309 12.6409C78.2834 12.4882 78.4366 12.2055 78.4907 11.7929L78.7884 9.74658H80.8171V12.8689H84.496V15.6962H80.8171V22.2118C80.8171 22.8757 80.9704 23.3559 81.2771 23.6523C81.5838 23.9487 82.0526 24.0968 82.6837 24.0965C83.0201 24.0953 83.3554 24.0592 83.6843 23.9889C84.0164 23.9218 84.33 23.784 84.6036 23.5851V26.8157C84.0628 26.9953 83.5625 27.1166 83.1027 27.1795C82.6951 27.2383 82.284 27.2697 81.8722 27.2736Z" fill="#002DB4"/>
<path d="M88.4983 26.9502V17.6345H86.1719V15.0766L89.8508 15.2651V14.7803C89.2915 14.6193 88.8271 14.3771 88.4575 14.0536C88.0981 13.7453 87.8155 13.3582 87.632 12.9228C87.4507 12.4876 87.3587 12.0206 87.3616 11.5495C87.3616 10.7777 87.5464 10.1137 87.9159 9.5577C88.2855 9.00167 88.8175 8.56182 89.5121 8.23816C90.2064 7.91533 91.0224 7.75375 91.9603 7.75342C92.7358 7.75342 93.4436 7.85218 94.0839 8.04969C94.7241 8.24721 95.2426 8.4985 95.6393 8.80357L95.3694 11.9008C94.9725 11.5959 94.508 11.3491 93.976 11.1606C93.4441 10.972 92.9347 10.8777 92.4479 10.8777C91.8889 10.8777 91.4289 11.0348 91.0681 11.3488C90.7072 11.6628 90.5268 12.1608 90.527 12.8426C90.527 13.3095 90.6172 13.6821 90.7976 13.9602C90.9781 14.2384 91.1949 14.4538 91.448 14.6063C91.6891 14.7543 91.9545 14.8588 92.232 14.9153H95.532L95.505 17.6345H91.8528V26.9502H88.4983Z" fill="#002DB4"/>
<path d="M104.025 27.3273C102.636 27.3273 101.415 27.04 100.36 26.4656C99.3047 25.8911 98.475 25.052 97.8706 23.9483C97.2666 22.8443 96.9647 21.4846 96.9648 19.8691C96.9648 18.2359 97.2714 16.8717 97.8844 15.7766C98.4974 14.6814 99.3359 13.8648 100.4 13.3267C101.464 12.7883 102.672 12.519 104.025 12.519C105.396 12.519 106.613 12.7973 107.678 13.3538C108.742 13.9104 109.581 14.7403 110.194 15.8435C110.806 16.9476 111.113 18.3162 111.113 19.9493C111.113 21.6008 110.802 22.9695 110.18 24.0553C109.558 25.1412 108.71 25.9579 107.637 26.5054C106.564 27.0532 105.36 27.3271 104.025 27.3273ZM104.16 24.7153C104.918 24.7153 105.554 24.5405 106.068 24.1908C106.582 23.841 106.983 23.316 107.271 22.6155C107.56 21.9156 107.704 21.0809 107.704 20.1114C107.704 19.0884 107.556 18.2134 107.258 17.4862C106.961 16.7591 106.532 16.1983 105.973 15.804C105.414 15.4094 104.729 15.2122 103.917 15.2122C103.195 15.2122 102.569 15.3872 102.037 15.7372C101.505 16.0873 101.095 16.6033 100.806 17.2853C100.518 17.9675 100.373 18.8111 100.373 19.8161C100.373 21.3959 100.712 22.6076 101.388 23.4511C102.064 24.2946 102.988 24.716 104.16 24.7153Z" fill="#002DB4"/>
<path d="M114.141 26.9501V7.83398H117.522V26.9501H114.141Z" fill="#002DB4"/>
<path d="M123.043 10.663C122.34 10.663 121.808 10.515 121.447 10.2189C121.086 9.92277 120.906 9.50549 120.906 8.96706C120.906 8.3926 121.091 7.95723 121.461 7.66096C121.831 7.36469 122.358 7.21663 123.043 7.2168C123.764 7.2168 124.305 7.36485 124.666 7.66096C125.027 7.95707 125.208 8.38347 125.208 8.94017C125.208 9.49637 125.023 9.9226 124.653 10.2189C124.283 10.5152 123.747 10.6632 123.043 10.663ZM121.308 26.9504V12.8689H124.717V26.9504H121.308Z" fill="#002DB4"/>
<path d="M134.833 27.3273C133.445 27.3273 132.223 27.04 131.168 26.4656C130.113 25.8911 129.283 25.052 128.679 23.9483C128.075 22.8443 127.773 21.4846 127.773 19.8691C127.773 18.2359 128.08 16.8717 128.693 15.7766C129.306 14.6814 130.145 13.8648 131.209 13.3267C132.273 12.7883 133.481 12.519 134.834 12.519C136.204 12.519 137.422 12.7973 138.486 13.3538C139.551 13.9104 140.389 14.7403 141.002 15.8435C141.615 16.9476 141.921 18.3162 141.922 19.9493C141.922 21.6008 141.611 22.9695 140.988 24.0553C140.366 25.1412 139.519 25.9579 138.446 26.5054C137.372 27.0532 136.167 27.3271 134.833 27.3273ZM134.968 24.7153C135.726 24.7153 136.362 24.5405 136.875 24.1908C137.389 23.841 137.791 23.316 138.08 22.6155C138.368 21.9156 138.512 21.0809 138.513 20.1114C138.513 19.0884 138.364 18.2134 138.066 17.4862C137.769 16.7591 137.34 16.1983 136.781 15.804C136.222 15.4094 135.537 15.2122 134.725 15.2122C134.003 15.2122 133.377 15.3872 132.845 15.7372C132.313 16.0873 131.903 16.6033 131.614 17.2853C131.326 17.9675 131.181 18.8111 131.181 19.8161C131.181 21.3959 131.52 22.6076 132.196 23.4511C132.872 24.2946 133.796 24.716 134.968 24.7153Z" fill="#002DB4"/>
</svg>
